<svg width="20" height="15" viewBox="0 0 20 15" fill="none" xmlns="http://www.w3.org/2000/svg">
<path d="M16.6547 2.47306C15.0625 1.19181 12.5437 0.974624 12.4359 0.966811C12.2688 0.952748 12.1094 1.0465 12.0406 1.20119C12.0344 1.21056 11.9797 1.33712 11.9187 1.534C12.9719 1.71212 14.2656 2.06994 15.4359 2.7965C15.6234 2.91212 15.6812 3.159 15.5656 3.3465C15.4891 3.46994 15.3594 3.53712 15.225 3.53712C15.1531 3.53712 15.0797 3.51681 15.0141 3.47619C13.0016 2.22775 10.4891 2.16525 10.0047 2.16525C9.52031 2.16525 7.00625 2.22775 4.99531 3.47619C4.80781 3.59337 4.56094 3.53556 4.44531 3.34806C4.32813 3.159 4.38594 2.91369 4.57344 2.7965C5.74375 2.0715 7.0375 1.71212 8.09063 1.53556C8.02969 1.33712 7.975 1.21212 7.97031 1.20119C7.9 1.0465 7.74219 0.949624 7.57344 0.966811C7.46563 0.974624 4.94688 1.19181 3.33281 2.49025C2.49063 3.26994 0.804688 7.82619 0.804688 11.7652C0.804688 11.8356 0.823437 11.9027 0.857813 11.9637C2.02031 14.0074 5.19375 14.5418 5.91719 14.5652C5.92031 14.5652 5.925 14.5652 5.92969 14.5652C6.05781 14.5652 6.17812 14.5043 6.25313 14.4012L6.98438 13.3949C5.01094 12.8856 4.00313 12.0199 3.94531 11.9684C3.77969 11.8231 3.76406 11.5699 3.91094 11.4043C4.05625 11.2387 4.30938 11.2231 4.475 11.3684C4.49844 11.3902 6.35469 12.9652 10.0047 12.9652C13.6609 12.9652 15.5172 11.384 15.5359 11.3684C15.7016 11.2246 15.9531 11.2387 16.1 11.4059C16.2453 11.5715 16.2297 11.8231 16.0641 11.9684C16.0063 12.0199 14.9984 12.8856 13.025 13.3949L13.7563 14.4012C13.8313 14.5043 13.9516 14.5652 14.0797 14.5652C14.0844 14.5652 14.0891 14.5652 14.0922 14.5652C14.8156 14.5418 17.9891 14.0074 19.1516 11.9637C19.1859 11.9027 19.2047 11.8356 19.2047 11.7652C19.2047 7.82619 17.5187 3.26994 16.6547 2.47306ZM7.40469 10.1652C6.63125 10.1652 6.00469 9.44962 6.00469 8.56525C6.00469 7.68087 6.63125 6.96525 7.40469 6.96525C8.17813 6.96525 8.80469 7.68087 8.80469 8.56525C8.80469 9.44962 8.17813 10.1652 7.40469 10.1652ZM12.6047 10.1652C11.8313 10.1652 11.2047 9.44962 11.2047 8.56525C11.2047 7.68087 11.8313 6.96525 12.6047 6.96525C13.3781 6.96525 14.0047 7.68087 14.0047 8.56525C14.0047 9.44962 13.3781 10.1652 12.6047 10.1652Z" fill="#9CA3AF"/>
</svg>
