<svg width="124" height="24" viewBox="0 0 124 24" fill="none" xmlns="http://www.w3.org/2000/svg">
<g clip-path="url(#clip0_252_1937)">
<path d="M1.19735 23.9518C1.85863 23.9518 2.39472 23.4107 2.39472 22.7432C2.39472 22.0758 1.85863 21.5347 1.19735 21.5347C0.536072 21.5347 0 22.0758 0 22.7432C0 23.4107 0.536072 23.9518 1.19735 23.9518Z" fill="url(#paint0_linear_252_1937)"/>
<path d="M1.19735 23.9518C1.85863 23.9518 2.39472 23.4107 2.39472 22.7432C2.39472 22.0758 1.85863 21.5347 1.19735 21.5347C0.536072 21.5347 0 22.0758 0 22.7432C0 23.4107 0.536072 23.9518 1.19735 23.9518Z" fill="#6366F1"/>
<path d="M17.0182 15.3738C17.0884 15.3419 17.155 15.3038 17.2184 15.2608C17.6004 15.0017 17.8514 14.5622 17.8514 14.0635C17.8514 13.6109 17.6441 13.2069 17.3196 12.9421L2.3984 0.376293L2.39684 0.375282L2.30429 0.297268L2.30172 0.295154L2.3984 0.376293L2.39684 0.375282C2.36719 0.348082 2.33651 0.321895 2.30429 0.297268C2.06312 0.111004 1.76053 0 1.4331 0C0.641428 0 0 0.646269 0 1.44324V18.6647C0 19.4618 0.641428 20.1074 1.4331 20.1074C1.77622 20.1074 2.09114 19.9861 2.33806 19.7835L2.35988 19.7653L7.55711 15.3572C7.72297 15.2274 7.82886 15.0248 7.82886 14.7972C7.82886 14.4057 7.51385 14.0881 7.12452 14.0881L4.78766 14.0884C4.39881 14.0884 4.08308 13.771 4.08308 13.3792V8.60779C4.08308 8.21589 4.39863 7.89878 4.78739 7.89878C4.95269 7.89878 5.10494 7.95628 5.22508 8.05213L8.09703 10.4556L11.7009 13.4881L11.8438 13.6085L11.8444 13.6091L11.7009 13.4881C11.7539 13.5216 11.8022 13.5625 11.8444 13.6091C11.9598 13.7352 12.0299 13.9036 12.0299 14.0884C12.0299 14.2982 11.9395 14.4867 11.7955 14.6164C11.7836 14.6274 11.7716 14.6373 11.7591 14.6473L11.7955 14.6164L4.34724 20.9315C4.18613 21.0612 4.08297 21.2612 4.08297 21.4852C4.08297 21.8765 4.39855 22.1942 4.78731 22.1942C4.90377 22.1942 5.01394 22.1655 5.11116 22.1147C5.12676 22.1068 5.14236 22.0978 5.15744 22.0885L5.10001 22.1206L17.2181 15.2612" fill="url(#paint1_linear_252_1937)"/>
<path d="M17.0182 15.3738C17.0884 15.3419 17.155 15.3038 17.2184 15.2608C17.6004 15.0017 17.8514 14.5622 17.8514 14.0635C17.8514 13.6109 17.6441 13.2069 17.3196 12.9421L2.3984 0.376293L2.39684 0.375282L2.30429 0.297268L2.30172 0.295154L2.3984 0.376293L2.39684 0.375282C2.36719 0.348082 2.33651 0.321895 2.30429 0.297268C2.06312 0.111004 1.76053 0 1.4331 0C0.641428 0 0 0.646269 0 1.44324V18.6647C0 19.4618 0.641428 20.1074 1.4331 20.1074C1.77622 20.1074 2.09114 19.9861 2.33806 19.7835L2.35988 19.7653L7.55711 15.3572C7.72297 15.2274 7.82886 15.0248 7.82886 14.7972C7.82886 14.4057 7.51385 14.0881 7.12452 14.0881L4.78766 14.0884C4.39881 14.0884 4.08308 13.771 4.08308 13.3792V8.60779C4.08308 8.21589 4.39863 7.89878 4.78739 7.89878C4.95269 7.89878 5.10494 7.95628 5.22508 8.05213L8.09703 10.4556L11.7009 13.4881L11.8438 13.6085L11.8444 13.6091L11.7009 13.4881C11.7539 13.5216 11.8022 13.5625 11.8444 13.6091C11.9598 13.7352 12.0299 13.9036 12.0299 14.0884C12.0299 14.2982 11.9395 14.4867 11.7955 14.6164C11.7836 14.6274 11.7716 14.6373 11.7591 14.6473L11.7955 14.6164L4.34724 20.9315C4.18613 21.0612 4.08297 21.2612 4.08297 21.4852C4.08297 21.8765 4.39855 22.1942 4.78731 22.1942C4.90377 22.1942 5.01394 22.1655 5.11116 22.1147C5.12676 22.1068 5.14236 22.0978 5.15744 22.0885L5.10001 22.1206L17.2181 15.2612" fill="#6366F1"/>
<path d="M28.3832 20.7213C28.1735 20.7213 28.0086 20.6562 27.8887 20.5263C27.7687 20.3961 27.709 20.2173 27.709 19.9896V3.62147C27.709 3.39379 27.7687 3.21491 27.8887 3.0848C28.0086 2.9547 28.1735 2.88965 28.3832 2.88965H34.4952C36.937 2.88965 38.9369 3.63773 40.4949 5.13387C41.3337 5.93073 41.9703 6.89834 42.4049 8.03672C42.8393 9.15881 43.0564 10.411 43.0564 11.7933C43.0564 13.1431 42.8318 14.4034 42.3823 15.5743C41.933 16.729 41.3038 17.7047 40.4949 18.5016C39.7457 19.2171 38.8544 19.7701 37.8207 20.1604C36.8022 20.5344 35.6936 20.7213 34.4952 20.7213H28.3832ZM34.4952 17.3794C37.8058 17.3794 39.4611 15.5256 39.4611 11.8177C39.4611 8.10989 37.8058 6.25598 34.4952 6.25598H31.2593V17.3794H34.4952Z" fill="url(#paint2_linear_252_1937)"/>
<path d="M28.3832 20.7213C28.1735 20.7213 28.0086 20.6562 27.8887 20.5263C27.7687 20.3961 27.709 20.2173 27.709 19.9896V3.62147C27.709 3.39379 27.7687 3.21491 27.8887 3.0848C28.0086 2.9547 28.1735 2.88965 28.3832 2.88965H34.4952C36.937 2.88965 38.9369 3.63773 40.4949 5.13387C41.3337 5.93073 41.9703 6.89834 42.4049 8.03672C42.8393 9.15881 43.0564 10.411 43.0564 11.7933C43.0564 13.1431 42.8318 14.4034 42.3823 15.5743C41.933 16.729 41.3038 17.7047 40.4949 18.5016C39.7457 19.2171 38.8544 19.7701 37.8207 20.1604C36.8022 20.5344 35.6936 20.7213 34.4952 20.7213H28.3832ZM34.4952 17.3794C37.8058 17.3794 39.4611 15.5256 39.4611 11.8177C39.4611 8.10989 37.8058 6.25598 34.4952 6.25598H31.2593V17.3794H34.4952Z" fill="white"/>
<path d="M54.5701 20.7214C54.3603 20.7214 54.1955 20.6563 54.0757 20.5264C53.956 20.3962 53.896 20.2174 53.896 19.9896V19.3797C53.5963 19.8189 53.0945 20.201 52.3904 20.5264C51.6863 20.8516 50.9372 21.0143 50.1433 21.0143C48.8849 21.0143 47.7838 20.7133 46.8402 20.1117C45.8963 19.4935 45.1773 18.6398 44.6829 17.5503C44.1886 16.4932 43.9414 15.3141 43.9414 14.0132C43.9414 12.696 44.1886 11.5088 44.6829 10.4517C45.1922 9.39466 45.9112 8.55715 46.8402 7.93916C47.7689 7.3212 48.87 7.01221 50.1433 7.01221C50.9672 7.01221 51.7087 7.1667 52.3679 7.4757C53.027 7.78469 53.5363 8.19125 53.896 8.69537V8.03675C53.896 7.80908 53.956 7.6302 54.0757 7.50009C54.1955 7.36999 54.3603 7.30493 54.5701 7.30493H56.5476C56.7573 7.30493 56.9219 7.36999 57.0419 7.50009C57.1618 7.6302 57.2215 7.80908 57.2215 8.03675V19.9896C57.2215 20.2174 57.1618 20.3962 57.0419 20.5264C56.9219 20.6563 56.7573 20.7214 56.5476 20.7214H54.5701ZM54.0307 14.0132C54.0307 12.8749 53.7161 11.956 53.087 11.2567C52.4728 10.5574 51.6564 10.2078 50.6378 10.2078C49.604 10.2078 48.7801 10.5574 48.1659 11.2567C47.5517 11.956 47.2447 12.8749 47.2447 14.0132C47.2447 15.119 47.5592 16.0298 48.1883 16.7453C48.8175 17.4446 49.6339 17.7941 50.6378 17.7941C51.6863 17.7941 52.5101 17.4609 53.1094 16.794C53.7236 16.111 54.0307 15.1841 54.0307 14.0132Z" fill="url(#paint3_linear_252_1937)"/>
<path d="M54.5701 20.7214C54.3603 20.7214 54.1955 20.6563 54.0757 20.5264C53.956 20.3962 53.896 20.2174 53.896 19.9896V19.3797C53.5963 19.8189 53.0945 20.201 52.3904 20.5264C51.6863 20.8516 50.9372 21.0143 50.1433 21.0143C48.8849 21.0143 47.7838 20.7133 46.8402 20.1117C45.8963 19.4935 45.1773 18.6398 44.6829 17.5503C44.1886 16.4932 43.9414 15.3141 43.9414 14.0132C43.9414 12.696 44.1886 11.5088 44.6829 10.4517C45.1922 9.39466 45.9112 8.55715 46.8402 7.93916C47.7689 7.3212 48.87 7.01221 50.1433 7.01221C50.9672 7.01221 51.7087 7.1667 52.3679 7.4757C53.027 7.78469 53.5363 8.19125 53.896 8.69537V8.03675C53.896 7.80908 53.956 7.6302 54.0757 7.50009C54.1955 7.36999 54.3603 7.30493 54.5701 7.30493H56.5476C56.7573 7.30493 56.9219 7.36999 57.0419 7.50009C57.1618 7.6302 57.2215 7.80908 57.2215 8.03675V19.9896C57.2215 20.2174 57.1618 20.3962 57.0419 20.5264C56.9219 20.6563 56.7573 20.7214 56.5476 20.7214H54.5701ZM54.0307 14.0132C54.0307 12.8749 53.7161 11.956 53.087 11.2567C52.4728 10.5574 51.6564 10.2078 50.6378 10.2078C49.604 10.2078 48.7801 10.5574 48.1659 11.2567C47.5517 11.956 47.2447 12.8749 47.2447 14.0132C47.2447 15.119 47.5592 16.0298 48.1883 16.7453C48.8175 17.4446 49.6339 17.7941 50.6378 17.7941C51.6863 17.7941 52.5101 17.4609 53.1094 16.794C53.7236 16.111 54.0307 15.1841 54.0307 14.0132Z" fill="white"/>
<path d="M65.3085 21.038C64.0952 21.038 62.9715 20.7291 61.9379 20.1113C60.9192 19.477 60.1104 18.6231 59.5111 17.5498C58.9118 16.4927 58.6123 15.3218 58.6123 14.0371C58.6123 12.785 58.9118 11.6222 59.5111 10.5488C60.1104 9.47553 60.9267 8.62175 61.9603 7.98752C62.979 7.36954 64.0952 7.06055 65.3085 7.06055C66.522 7.06055 67.6455 7.37766 68.6791 8.01192C69.7128 8.62988 70.5367 9.47553 71.1508 10.5488C71.7501 11.6059 72.0498 12.7687 72.0498 14.0371C72.0498 15.2893 71.7426 16.4521 71.1284 17.5253C70.5293 18.5987 69.7128 19.4525 68.6791 20.0868C67.6455 20.721 66.522 21.038 65.3085 21.038ZM65.3085 10.2561C64.6944 10.2561 64.125 10.4269 63.6008 10.7684C63.0763 11.0936 62.6644 11.5408 62.3648 12.11C62.0652 12.7117 61.9155 13.354 61.9155 14.0371C61.9155 14.769 62.0578 15.4276 62.3424 16.013C62.642 16.5822 63.0539 17.0294 63.5782 17.3548C64.1026 17.6961 64.6792 17.8669 65.3085 17.8669C65.9376 17.8669 66.507 17.7044 67.0163 17.379C67.5405 17.0376 67.9525 16.574 68.2522 15.9886C68.5518 15.3869 68.7016 14.7364 68.7016 14.0371C68.7016 13.3378 68.5518 12.7036 68.2522 12.1344C67.9675 11.549 67.5631 11.0855 67.0387 10.744C66.5145 10.4188 65.9376 10.2561 65.3085 10.2561Z" fill="url(#paint4_linear_252_1937)"/>
<path d="M65.3085 21.038C64.0952 21.038 62.9715 20.7291 61.9379 20.1113C60.9192 19.477 60.1104 18.6231 59.5111 17.5498C58.9118 16.4927 58.6123 15.3218 58.6123 14.0371C58.6123 12.785 58.9118 11.6222 59.5111 10.5488C60.1104 9.47553 60.9267 8.62175 61.9603 7.98752C62.979 7.36954 64.0952 7.06055 65.3085 7.06055C66.522 7.06055 67.6455 7.37766 68.6791 8.01192C69.7128 8.62988 70.5367 9.47553 71.1508 10.5488C71.7501 11.6059 72.0498 12.7687 72.0498 14.0371C72.0498 15.2893 71.7426 16.4521 71.1284 17.5253C70.5293 18.5987 69.7128 19.4525 68.6791 20.0868C67.6455 20.721 66.522 21.038 65.3085 21.038ZM65.3085 10.2561C64.6944 10.2561 64.125 10.4269 63.6008 10.7684C63.0763 11.0936 62.6644 11.5408 62.3648 12.11C62.0652 12.7117 61.9155 13.354 61.9155 14.0371C61.9155 14.769 62.0578 15.4276 62.3424 16.013C62.642 16.5822 63.0539 17.0294 63.5782 17.3548C64.1026 17.6961 64.6792 17.8669 65.3085 17.8669C65.9376 17.8669 66.507 17.7044 67.0163 17.379C67.5405 17.0376 67.9525 16.574 68.2522 15.9886C68.5518 15.3869 68.7016 14.7364 68.7016 14.0371C68.7016 13.3378 68.5518 12.7036 68.2522 12.1344C67.9675 11.549 67.5631 11.0855 67.0387 10.744C66.5145 10.4188 65.9376 10.2561 65.3085 10.2561Z" fill="white"/>
<path d="M85.1358 17.3794C85.3455 17.3794 85.5104 17.4445 85.6303 17.5747C85.75 17.7047 85.81 17.8836 85.81 18.1113V19.9896C85.81 20.2173 85.75 20.3961 85.6303 20.5263C85.5104 20.6562 85.3455 20.7213 85.1358 20.7213H74.305C74.0952 20.7213 73.9305 20.6562 73.8106 20.5263C73.6909 20.3961 73.6309 20.2173 73.6309 19.9896V3.62147C73.6309 3.39379 73.6909 3.21491 73.8106 3.0848C73.9305 2.9547 74.0952 2.88965 74.305 2.88965H76.5295C76.7392 2.88965 76.9041 2.9547 77.0239 3.0848C77.1437 3.21491 77.2037 3.39379 77.2037 3.62147V17.3794H85.1358Z" fill="url(#paint5_linear_252_1937)"/>
<path d="M85.1358 17.3794C85.3455 17.3794 85.5104 17.4445 85.6303 17.5747C85.75 17.7047 85.81 17.8836 85.81 18.1113V19.9896C85.81 20.2173 85.75 20.3961 85.6303 20.5263C85.5104 20.6562 85.3455 20.7213 85.1358 20.7213H74.305C74.0952 20.7213 73.9305 20.6562 73.8106 20.5263C73.6909 20.3961 73.6309 20.2173 73.6309 19.9896V3.62147C73.6309 3.39379 73.6909 3.21491 73.8106 3.0848C73.9305 2.9547 74.0952 2.88965 74.305 2.88965H76.5295C76.7392 2.88965 76.9041 2.9547 77.0239 3.0848C77.1437 3.21491 77.2037 3.39379 77.2037 3.62147V17.3794H85.1358Z" fill="white"/>
<path d="M92.5655 21.063C91.5169 21.063 90.4906 20.8272 89.4869 20.3555C88.4832 19.884 87.6369 19.1523 86.9478 18.1601C86.2138 17.1193 85.8467 15.7533 85.8467 14.0621C85.8467 12.6798 86.1388 11.46 86.723 10.403C87.3223 9.34592 88.1313 8.53279 89.15 7.96362C90.1685 7.37816 91.3072 7.08545 92.5655 7.08545C93.674 7.08545 94.7078 7.35378 95.6664 7.89044C96.6401 8.41083 97.4342 9.16702 98.0484 10.159C98.4527 10.8095 98.715 11.4438 98.8348 12.0618C98.9547 12.6798 99.0147 13.4034 99.0147 14.2327C99.0147 14.5743 98.9323 14.8589 98.7674 15.0866C98.6026 15.3142 98.3703 15.428 98.0708 15.428H89.1948C89.3597 16.2737 89.7715 16.8916 90.4308 17.2819C91.0898 17.6724 91.8016 17.8674 92.5655 17.8674C93.1796 17.8674 93.704 17.7698 94.1384 17.5748C94.5729 17.3795 94.9623 17.103 95.3069 16.7453C95.5016 16.5664 95.6813 16.477 95.8462 16.477C95.981 16.477 96.1159 16.5258 96.2507 16.6234L97.7113 17.5503C97.9509 17.6966 98.0708 17.8755 98.0708 18.087C98.0708 18.217 98.0109 18.3715 97.8909 18.5504C96.5129 20.2253 94.7377 21.063 92.5655 21.063ZM92.543 10.281C91.6292 10.281 90.8726 10.525 90.2733 11.0128C89.6891 11.5007 89.3596 12.1105 89.2846 12.8423H95.4641C95.4193 12.4033 95.2695 11.9886 95.0148 11.5983C94.7601 11.208 94.423 10.8909 94.0036 10.6469C93.5841 10.403 93.0972 10.281 92.543 10.281Z" fill="url(#paint6_linear_252_1937)"/>
<path d="M92.5655 21.063C91.5169 21.063 90.4906 20.8272 89.4869 20.3555C88.4832 19.884 87.6369 19.1523 86.9478 18.1601C86.2138 17.1193 85.8467 15.7533 85.8467 14.0621C85.8467 12.6798 86.1388 11.46 86.723 10.403C87.3223 9.34592 88.1313 8.53279 89.15 7.96362C90.1685 7.37816 91.3072 7.08545 92.5655 7.08545C93.674 7.08545 94.7078 7.35378 95.6664 7.89044C96.6401 8.41083 97.4342 9.16702 98.0484 10.159C98.4527 10.8095 98.715 11.4438 98.8348 12.0618C98.9547 12.6798 99.0147 13.4034 99.0147 14.2327C99.0147 14.5743 98.9323 14.8589 98.7674 15.0866C98.6026 15.3142 98.3703 15.428 98.0708 15.428H89.1948C89.3597 16.2737 89.7715 16.8916 90.4308 17.2819C91.0898 17.6724 91.8016 17.8674 92.5655 17.8674C93.1796 17.8674 93.704 17.7698 94.1384 17.5748C94.5729 17.3795 94.9623 17.103 95.3069 16.7453C95.5016 16.5664 95.6813 16.477 95.8462 16.477C95.981 16.477 96.1159 16.5258 96.2507 16.6234L97.7113 17.5503C97.9509 17.6966 98.0708 17.8755 98.0708 18.087C98.0708 18.217 98.0109 18.3715 97.8909 18.5504C96.5129 20.2253 94.7377 21.063 92.5655 21.063ZM92.543 10.281C91.6292 10.281 90.8726 10.525 90.2733 11.0128C89.6891 11.5007 89.3596 12.1105 89.2846 12.8423H95.4641C95.4193 12.4033 95.2695 11.9886 95.0148 11.5983C94.7601 11.208 94.423 10.8909 94.0036 10.6469C93.5841 10.403 93.0972 10.281 92.543 10.281Z" fill="white"/>
<path d="M107.007 7.06055C108.685 7.06055 109.913 7.54843 110.692 8.52418C111.486 9.48366 111.883 10.9066 111.883 12.7931V19.9892C111.883 20.217 111.823 20.3957 111.703 20.5259C111.583 20.6559 111.419 20.721 111.209 20.721H109.119C108.909 20.721 108.744 20.6559 108.625 20.5259C108.505 20.3957 108.445 20.217 108.445 19.9892V12.7931C108.445 10.9879 107.651 10.0854 106.063 10.0854C105.374 10.0854 104.797 10.37 104.333 10.9392C103.883 11.5083 103.674 12.4028 103.704 13.6224V19.9892C103.704 20.217 103.644 20.3957 103.524 20.5259C103.404 20.6559 103.239 20.721 103.029 20.721H101.03C100.82 20.721 100.655 20.6559 100.535 20.5259C100.415 20.3957 100.355 20.217 100.355 19.9892V8.0363C100.355 7.80863 100.415 7.62975 100.535 7.49964C100.655 7.36954 100.82 7.30449 101.03 7.30449H103.029C103.239 7.30449 103.404 7.36954 103.524 7.49964C103.644 7.62975 103.704 7.80863 103.704 8.0363V8.49977C104.108 8.06069 104.61 7.71104 105.209 7.45086C105.823 7.19066 106.423 7.06055 107.007 7.06055Z" fill="url(#paint7_linear_252_1937)"/>
<path d="M107.007 7.06055C108.685 7.06055 109.913 7.54843 110.692 8.52418C111.486 9.48366 111.883 10.9066 111.883 12.7931V19.9892C111.883 20.217 111.823 20.3957 111.703 20.5259C111.583 20.6559 111.419 20.721 111.209 20.721H109.119C108.909 20.721 108.744 20.6559 108.625 20.5259C108.505 20.3957 108.445 20.217 108.445 19.9892V12.7931C108.445 10.9879 107.651 10.0854 106.063 10.0854C105.374 10.0854 104.797 10.37 104.333 10.9392C103.883 11.5083 103.674 12.4028 103.704 13.6224V19.9892C103.704 20.217 103.644 20.3957 103.524 20.5259C103.404 20.6559 103.239 20.721 103.029 20.721H101.03C100.82 20.721 100.655 20.6559 100.535 20.5259C100.415 20.3957 100.355 20.217 100.355 19.9892V8.0363C100.355 7.80863 100.415 7.62975 100.535 7.49964C100.655 7.36954 100.82 7.30449 101.03 7.30449H103.029C103.239 7.30449 103.404 7.36954 103.524 7.49964C103.644 7.62975 103.704 7.80863 103.704 8.0363V8.49977C104.108 8.06069 104.61 7.71104 105.209 7.45086C105.823 7.19066 106.423 7.06055 107.007 7.06055Z" fill="white"/>
<path d="M118.922 21.038C116.929 21.038 115.176 20.4852 113.663 19.3793C113.469 19.233 113.371 19.0542 113.371 18.8428C113.371 18.6801 113.424 18.5174 113.529 18.3549L114.495 16.9644C114.645 16.753 114.817 16.6473 115.012 16.6473C115.161 16.6473 115.296 16.6879 115.416 16.7692C115.955 17.0945 116.525 17.3548 117.124 17.5498C117.738 17.745 118.322 17.8424 118.876 17.8424C119.386 17.8424 119.805 17.7287 120.135 17.5011C120.479 17.2733 120.652 16.9887 120.652 16.6473C120.652 16.3383 120.494 16.1105 120.18 15.9642C119.865 15.8178 119.461 15.704 118.966 15.6228L118.27 15.5251C117.236 15.3463 116.42 15.1349 115.821 14.8909C115.221 14.647 114.674 14.2567 114.18 13.72C113.641 13.1345 113.371 12.3296 113.371 11.305C113.371 9.77638 113.873 8.6868 114.877 8.0363C115.895 7.38581 117.094 7.06055 118.472 7.06055C119.341 7.06055 120.142 7.18252 120.876 7.42646C121.625 7.6704 122.351 8.04443 123.056 8.54856C123.265 8.67867 123.371 8.85755 123.371 9.08523C123.371 9.23159 123.31 9.39421 123.191 9.5731L122.247 10.9392C122.097 11.1506 121.925 11.2563 121.731 11.2563C121.581 11.2563 121.439 11.2156 121.303 11.1343C120.27 10.5326 119.289 10.2317 118.36 10.2317C117.955 10.2317 117.581 10.3293 117.236 10.5244C116.907 10.7033 116.742 10.9392 116.742 11.2319C116.742 11.5896 116.944 11.8498 117.349 12.0125C117.768 12.1751 118.345 12.3133 119.079 12.4271C120.277 12.6548 121.161 12.8825 121.731 13.1102C122.315 13.3216 122.831 13.6875 123.281 14.2079C123.76 14.8096 124 15.6309 124 16.6716C124 18.0702 123.558 19.1517 122.674 19.916C121.79 20.664 120.539 21.038 118.922 21.038Z" fill="url(#paint8_linear_252_1937)"/>
<path d="M118.922 21.038C116.929 21.038 115.176 20.4852 113.663 19.3793C113.469 19.233 113.371 19.0542 113.371 18.8428C113.371 18.6801 113.424 18.5174 113.529 18.3549L114.495 16.9644C114.645 16.753 114.817 16.6473 115.012 16.6473C115.161 16.6473 115.296 16.6879 115.416 16.7692C115.955 17.0945 116.525 17.3548 117.124 17.5498C117.738 17.745 118.322 17.8424 118.876 17.8424C119.386 17.8424 119.805 17.7287 120.135 17.5011C120.479 17.2733 120.652 16.9887 120.652 16.6473C120.652 16.3383 120.494 16.1105 120.18 15.9642C119.865 15.8178 119.461 15.704 118.966 15.6228L118.27 15.5251C117.236 15.3463 116.42 15.1349 115.821 14.8909C115.221 14.647 114.674 14.2567 114.18 13.72C113.641 13.1345 113.371 12.3296 113.371 11.305C113.371 9.77638 113.873 8.6868 114.877 8.0363C115.895 7.38581 117.094 7.06055 118.472 7.06055C119.341 7.06055 120.142 7.18252 120.876 7.42646C121.625 7.6704 122.351 8.04443 123.056 8.54856C123.265 8.67867 123.371 8.85755 123.371 9.08523C123.371 9.23159 123.31 9.39421 123.191 9.5731L122.247 10.9392C122.097 11.1506 121.925 11.2563 121.731 11.2563C121.581 11.2563 121.439 11.2156 121.303 11.1343C120.27 10.5326 119.289 10.2317 118.36 10.2317C117.955 10.2317 117.581 10.3293 117.236 10.5244C116.907 10.7033 116.742 10.9392 116.742 11.2319C116.742 11.5896 116.944 11.8498 117.349 12.0125C117.768 12.1751 118.345 12.3133 119.079 12.4271C120.277 12.6548 121.161 12.8825 121.731 13.1102C122.315 13.3216 122.831 13.6875 123.281 14.2079C123.76 14.8096 124 15.6309 124 16.6716C124 18.0702 123.558 19.1517 122.674 19.916C121.79 20.664 120.539 21.038 118.922 21.038Z" fill="white"/>
</g>
<defs>
<linearGradient id="paint0_linear_252_1937" x1="-1.26958e-05" y1="11.8958" x2="108.589" y2="-28.4812" gradientUnits="userSpaceOnUse">
<stop stop-color="#5FB5FC"/>
<stop offset="0.578709" stop-color="#844AFF"/>
<stop offset="1" stop-color="#DF52FF"/>
</linearGradient>
<linearGradient id="paint1_linear_252_1937" x1="-1.20693e-05" y1="11.896" x2="108.589" y2="-28.481" gradientUnits="userSpaceOnUse">
<stop stop-color="#5FB5FC"/>
<stop offset="0.578709" stop-color="#844AFF"/>
<stop offset="1" stop-color="#DF52FF"/>
</linearGradient>
<linearGradient id="paint2_linear_252_1937" x1="0.000125203" y1="11.8961" x2="108.59" y2="-28.4808" gradientUnits="userSpaceOnUse">
<stop stop-color="#5FB5FC"/>
<stop offset="0.578709" stop-color="#844AFF"/>
<stop offset="1" stop-color="#DF52FF"/>
</linearGradient>
<linearGradient id="paint3_linear_252_1937" x1="0.000306084" y1="11.8962" x2="108.59" y2="-28.4808" gradientUnits="userSpaceOnUse">
<stop stop-color="#5FB5FC"/>
<stop offset="0.578709" stop-color="#844AFF"/>
<stop offset="1" stop-color="#DF52FF"/>
</linearGradient>
<linearGradient id="paint4_linear_252_1937" x1="0.000160932" y1="11.8958" x2="108.59" y2="-28.4812" gradientUnits="userSpaceOnUse">
<stop stop-color="#5FB5FC"/>
<stop offset="0.578709" stop-color="#844AFF"/>
<stop offset="1" stop-color="#DF52FF"/>
</linearGradient>
<linearGradient id="paint5_linear_252_1937" x1="-2.49465e-05" y1="11.8961" x2="108.589" y2="-28.4808" gradientUnits="userSpaceOnUse">
<stop stop-color="#5FB5FC"/>
<stop offset="0.578709" stop-color="#844AFF"/>
<stop offset="1" stop-color="#DF52FF"/>
</linearGradient>
<linearGradient id="paint6_linear_252_1937" x1="-0.000222314" y1="11.8963" x2="108.589" y2="-28.4807" gradientUnits="userSpaceOnUse">
<stop stop-color="#5FB5FC"/>
<stop offset="0.578709" stop-color="#844AFF"/>
<stop offset="1" stop-color="#DF52FF"/>
</linearGradient>
<linearGradient id="paint7_linear_252_1937" x1="-0.00047534" y1="11.8958" x2="108.589" y2="-28.4813" gradientUnits="userSpaceOnUse">
<stop stop-color="#5FB5FC"/>
<stop offset="0.578709" stop-color="#844AFF"/>
<stop offset="1" stop-color="#DF52FF"/>
</linearGradient>
<linearGradient id="paint8_linear_252_1937" x1="-6.7502e-05" y1="11.8958" x2="108.589" y2="-28.4812" gradientUnits="userSpaceOnUse">
<stop stop-color="#5FB5FC"/>
<stop offset="0.578709" stop-color="#844AFF"/>
<stop offset="1" stop-color="#DF52FF"/>
</linearGradient>
<clipPath id="clip0_252_1937">
<rect width="124" height="24" fill="white"/>
</clipPath>
</defs>
</svg>
